<svg width="180" height="60" viewBox="0 0 180 60" fill="none" xmlns="http://www.w3.org/2000/svg">
<path d="M9.14 21.12C7.32667 21.12 5.78667 20.88 4.52 20.4C3.26667 19.92 2.31333 19.2267 1.66 18.32C1.00667 17.4 0.68 16.28 0.68 14.96C0.68 13.64 1.00667 12.5267 1.66 11.62C2.31333 10.7 3.26667 10 4.52 9.52C5.78667 9.04 7.32667 8.8 9.14 8.8C9.16667 8.8 9.24 8.8 9.36 8.8C9.49333 8.8 9.62 8.8 9.74 8.8C9.87333 8.8 9.94667 8.8 9.96 8.8C11.76 8.8 13.28 9.04 14.52 9.52C15.7733 10 16.72 10.7 17.36 11.62C18 12.54 18.32 13.6533 18.32 14.96C18.32 16.2533 18 17.3667 17.36 18.3C16.7333 19.22 15.8067 19.92 14.58 20.4C13.3667 20.88 11.88 21.12 10.12 21.12C10.08 21.12 9.98667 21.12 9.84 21.12C9.69333 21.12 9.54667 21.12 9.4 21.12C9.26667 21.12 9.18 21.12 9.14 21.12ZM9.44 18.62C9.48 18.62 9.53333 18.62 9.6 18.62C9.66667 18.62 9.71333 18.62 9.74 18.62C10.9667 18.62 11.98 18.4867 12.78 18.22C13.5933 17.94 14.2 17.5333 14.6 17C15 16.4533 15.2 15.7667 15.2 14.94C15.2 14.1133 14.9933 13.4333 14.58 12.9C14.1667 12.3667 13.56 11.9733 12.76 11.72C11.9733 11.4533 10.98 11.32 9.78 11.32C9.75333 11.32 9.7 11.32 9.62 11.32C9.55333 11.32 9.49333 11.32 9.44 11.32C8.17333 11.32 7.12667 11.4467 6.3 11.7C5.47333 11.9533 4.85333 12.3533 4.44 12.9C4.02667 13.4333 3.82 14.12 3.82 14.96C3.82 15.8 4.04 16.4933 4.48 17.04C4.92 17.5733 5.55333 17.9733 6.38 18.24C7.22 18.4933 8.24 18.62 9.44 18.62ZM8.02 22.62V7.4H11V22.62H8.02ZM25.7439 22.16C24.5972 22.16 23.5772 21.92 22.6839 21.44C21.8039 20.96 21.1039 20.3067 20.5839 19.48C20.0772 18.64 19.8239 17.6867 19.8239 16.62C19.8239 15.54 20.0772 14.5867 20.5839 13.76C21.1039 12.92 21.8039 12.2667 22.6839 11.8C23.5772 11.32 24.5972 11.08 25.7439 11.08C26.8772 11.08 27.8906 11.32 28.7839 11.8C29.6772 12.2667 30.3772 12.9133 30.8839 13.74C31.3906 14.5667 31.6439 15.5267 31.6439 16.62C31.6439 17.6867 31.3906 18.64 30.8839 19.48C30.3772 20.3067 29.6772 20.96 28.7839 21.44C27.8906 21.92 26.8772 22.16 25.7439 22.16ZM25.7439 19.6C26.2639 19.6 26.7306 19.48 27.1439 19.24C27.5572 19 27.8839 18.66 28.1239 18.22C28.3639 17.7667 28.4839 17.2333 28.4839 16.62C28.4839 15.9933 28.3639 15.46 28.1239 15.02C27.8839 14.58 27.5572 14.24 27.1439 14C26.7306 13.76 26.2639 13.64 25.7439 13.64C25.2239 13.64 24.7572 13.76 24.3439 14C23.9306 14.24 23.5972 14.58 23.3439 15.02C23.1039 15.46 22.9839 15.9933 22.9839 16.62C22.9839 17.2333 23.1039 17.7667 23.3439 18.22C23.5972 18.66 23.9306 19 24.3439 19.24C24.7572 19.48 25.2239 19.6 25.7439 19.6ZM40.3298 22.16C39.4232 22.16 38.6298 21.96 37.9498 21.56C37.2698 21.16 36.7365 20.5533 36.3498 19.74C35.9765 18.9133 35.7898 17.8733 35.7898 16.62C35.7898 15.3533 35.9698 14.3133 36.3298 13.5C36.6898 12.6867 37.2098 12.08 37.8898 11.68C38.5698 11.28 39.3832 11.08 40.3298 11.08C41.3432 11.08 42.2498 11.3133 43.0498 11.78C43.8632 12.2333 44.5032 12.8733 44.9698 13.7C45.4498 14.5267 45.6898 15.5 45.6898 16.62C45.6898 17.7533 45.4498 18.7333 44.9698 19.56C44.5032 20.3867 43.8632 21.0267 43.0498 21.48C42.2498 21.9333 41.3432 22.16 40.3298 22.16ZM33.9698 25.88V11.24H36.9498V13.44L36.8898 16.64L37.0898 19.82V25.88H33.9698ZM39.7898 19.6C40.3098 19.6 40.7698 19.48 41.1698 19.24C41.5832 19 41.9098 18.66 42.1498 18.22C42.4032 17.7667 42.5298 17.2333 42.5298 16.62C42.5298 15.9933 42.4032 15.46 42.1498 15.02C41.9098 14.58 41.5832 14.24 41.1698 14C40.7698 13.76 40.3098 13.64 39.7898 13.64C39.2698 13.64 38.8032 13.76 38.3898 14C37.9765 14.24 37.6498 14.58 37.4098 15.02C37.1698 15.46 37.0498 15.9933 37.0498 16.62C37.0498 17.2333 37.1698 17.7667 37.4098 18.22C37.6498 18.66 37.9765 19 38.3898 19.24C38.8032 19.48 39.2698 19.6 39.7898 19.6ZM49.9859 22V13.08L50.6859 13.8H46.3459V11.24H56.7259V13.8H52.3859L53.0859 13.08V22H49.9859ZM63.3998 22.16C62.1732 22.16 61.0932 21.92 60.1598 21.44C59.2398 20.96 58.5265 20.3067 58.0198 19.48C57.5132 18.64 57.2598 17.6867 57.2598 16.62C57.2598 15.54 57.5065 14.5867 57.9998 13.76C58.5065 12.92 59.1932 12.2667 60.0598 11.8C60.9265 11.32 61.9065 11.08 62.9998 11.08C64.0532 11.08 64.9998 11.3067 65.8398 11.76C66.6932 12.2 67.3665 12.84 67.8598 13.68C68.3532 14.5067 68.5998 15.5 68.5998 16.66C68.5998 16.78 68.5932 16.92 68.5798 17.08C68.5665 17.2267 68.5532 17.3667 68.5398 17.5H59.7998V15.68H66.8998L65.6998 16.22C65.6998 15.66 65.5865 15.1733 65.3598 14.76C65.1332 14.3467 64.8198 14.0267 64.4198 13.8C64.0198 13.56 63.5532 13.44 63.0198 13.44C62.4865 13.44 62.0132 13.56 61.5998 13.8C61.1998 14.0267 60.8865 14.3533 60.6598 14.78C60.4332 15.1933 60.3198 15.6867 60.3198 16.26V16.74C60.3198 17.3267 60.4465 17.8467 60.6998 18.3C60.9665 18.74 61.3332 19.08 61.7998 19.32C62.2798 19.5467 62.8398 19.66 63.4798 19.66C64.0532 19.66 64.5532 19.5733 64.9798 19.4C65.4198 19.2267 65.8198 18.9667 66.1798 18.62L67.8398 20.42C67.3465 20.98 66.7265 21.4133 65.9798 21.72C65.2332 22.0133 64.3732 22.16 63.3998 22.16ZM78.8114 22L75.2114 16.9L77.7514 15.4L82.4914 22H78.8114ZM71.1914 22V11.24H74.3114V22H71.1914ZM73.3914 17.92V15.42H77.1514V17.92H73.3914ZM78.0514 16.98L75.1314 16.66L78.9114 11.24H82.2314L78.0514 16.98ZM89.0114 22.16C87.8514 22.16 86.8181 21.9267 85.9114 21.46C85.0047 20.98 84.2914 20.32 83.7714 19.48C83.2647 18.64 83.0114 17.6867 83.0114 16.62C83.0114 15.54 83.2647 14.5867 83.7714 13.76C84.2914 12.92 85.0047 12.2667 85.9114 11.8C86.8181 11.32 87.8514 11.08 89.0114 11.08C90.1447 11.08 91.1314 11.32 91.9714 11.8C92.8114 12.2667 93.4314 12.94 93.8314 13.82L91.4114 15.12C91.1314 14.6133 90.7781 14.24 90.3514 14C89.9381 13.76 89.4847 13.64 88.9914 13.64C88.4581 13.64 87.9781 13.76 87.5514 14C87.1247 14.24 86.7847 14.58 86.5314 15.02C86.2914 15.46 86.1714 15.9933 86.1714 16.62C86.1714 17.2467 86.2914 17.78 86.5314 18.22C86.7847 18.66 87.1247 19 87.5514 19.24C87.9781 19.48 88.4581 19.6 88.9914 19.6C89.4847 19.6 89.9381 19.4867 90.3514 19.26C90.7781 19.02 91.1314 18.64 91.4114 18.12L93.8314 19.44C93.4314 20.3067 92.8114 20.98 91.9714 21.46C91.1314 21.9267 90.1447 22.16 89.0114 22.16ZM95.0767 17.62V15.12H100.737V17.62H95.0767ZM111.15 21.12C109.337 21.12 107.797 20.88 106.53 20.4C105.277 19.92 104.323 19.2267 103.67 18.32C103.017 17.4 102.69 16.28 102.69 14.96C102.69 13.64 103.017 12.5267 103.67 11.62C104.323 10.7 105.277 10 106.53 9.52C107.797 9.04 109.337 8.8 111.15 8.8C111.177 8.8 111.25 8.8 111.37 8.8C111.503 8.8 111.63 8.8 111.75 8.8C111.883 8.8 111.957 8.8 111.97 8.8C113.77 8.8 115.29 9.04 116.53 9.52C117.783 10 118.73 10.7 119.37 11.62C120.01 12.54 120.33 13.6533 120.33 14.96C120.33 16.2533 120.01 17.3667 119.37 18.3C118.743 19.22 117.817 19.92 116.59 20.4C115.377 20.88 113.89 21.12 112.13 21.12C112.09 21.12 111.997 21.12 111.85 21.12C111.703 21.12 111.557 21.12 111.41 21.12C111.277 21.12 111.19 21.12 111.15 21.12ZM111.45 18.62C111.49 18.62 111.543 18.62 111.61 18.62C111.677 18.62 111.723 18.62 111.75 18.62C112.977 18.62 113.99 18.4867 114.79 18.22C115.603 17.94 116.21 17.5333 116.61 17C117.01 16.4533 117.21 15.7667 117.21 14.94C117.21 14.1133 117.003 13.4333 116.59 12.9C116.177 12.3667 115.57 11.9733 114.77 11.72C113.983 11.4533 112.99 11.32 111.79 11.32C111.763 11.32 111.71 11.32 111.63 11.32C111.563 11.32 111.503 11.32 111.45 11.32C110.183 11.32 109.137 11.4467 108.31 11.7C107.483 11.9533 106.863 12.3533 106.45 12.9C106.037 13.4333 105.83 14.12 105.83 14.96C105.83 15.8 106.05 16.4933 106.49 17.04C106.93 17.5733 107.563 17.9733 108.39 18.24C109.23 18.4933 110.25 18.62 111.45 18.62ZM110.03 22.62V7.4H113.01V22.62H110.03ZM122.694 22V11.24H125.814V22H122.694ZM124.254 9.74C123.681 9.74 123.214 9.57333 122.854 9.24C122.494 8.90667 122.314 8.49333 122.314 8C122.314 7.50667 122.494 7.09333 122.854 6.76C123.214 6.42667 123.681 6.26 124.254 6.26C124.827 6.26 125.294 6.42 125.654 6.74C126.014 7.04667 126.194 7.44667 126.194 7.94C126.194 8.46 126.014 8.89333 125.654 9.24C125.307 9.57333 124.841 9.74 124.254 9.74ZM129.008 22V11.24H132.108V15.44H136.788V11.24H139.908V22H136.788V17.98H132.108V22H129.008ZM149.535 22V19.9L149.335 19.44V15.68C149.335 15.0133 149.128 14.4933 148.715 14.12C148.315 13.7467 147.695 13.56 146.855 13.56C146.281 13.56 145.715 13.6533 145.155 13.84C144.608 14.0133 144.141 14.2533 143.755 14.56L142.635 12.38C143.221 11.9667 143.928 11.6467 144.755 11.42C145.581 11.1933 146.421 11.08 147.275 11.08C148.915 11.08 150.188 11.4667 151.095 12.24C152.001 13.0133 152.455 14.22 152.455 15.86V22H149.535ZM146.255 22.16C145.415 22.16 144.695 22.02 144.095 21.74C143.495 21.4467 143.035 21.0533 142.715 20.56C142.395 20.0667 142.235 19.5133 142.235 18.9C142.235 18.26 142.388 17.7 142.695 17.22C143.015 16.74 143.515 16.3667 144.195 16.1C144.875 15.82 145.761 15.68 146.855 15.68H149.715V17.5H147.195C146.461 17.5 145.955 17.62 145.675 17.86C145.408 18.1 145.275 18.4 145.275 18.76C145.275 19.16 145.428 19.48 145.735 19.72C146.055 19.9467 146.488 20.06 147.035 20.06C147.555 20.06 148.021 19.94 148.435 19.7C148.848 19.4467 149.148 19.08 149.335 18.6L149.815 20.04C149.588 20.7333 149.175 21.26 148.575 21.62C147.975 21.98 147.201 22.16 146.255 22.16ZM155.365 22V11.24H158.465V15.44H163.145V11.24H166.265V22H163.145V17.98H158.465V22H155.365ZM174.572 22.16C173.412 22.16 172.378 21.9267 171.472 21.46C170.565 20.98 169.852 20.32 169.332 19.48C168.825 18.64 168.572 17.6867 168.572 16.62C168.572 15.54 168.825 14.5867 169.332 13.76C169.852 12.92 170.565 12.2667 171.472 11.8C172.378 11.32 173.412 11.08 174.572 11.08C175.705 11.08 176.692 11.32 177.532 11.8C178.372 12.2667 178.992 12.94 179.392 13.82L176.972 15.12C176.692 14.6133 176.338 14.24 175.912 14C175.498 13.76 175.045 13.64 174.552 13.64C174.018 13.64 173.538 13.76 173.112 14C172.685 14.24 172.345 14.58 172.092 15.02C171.852 15.46 171.732 15.9933 171.732 16.62C171.732 17.2467 171.852 17.78 172.092 18.22C172.345 18.66 172.685 19 173.112 19.24C173.538 19.48 174.018 19.6 174.552 19.6C175.045 19.6 175.498 19.4867 175.912 19.26C176.338 19.02 176.692 18.64 176.972 18.12L179.392 19.44C178.992 20.3067 178.372 20.98 177.532 21.46C176.692 21.9267 175.705 22.16 174.572 22.16Z" fill="white"/>
<path d="M10.544 51.128C10.5333 51.128 10.496 51.128 10.432 51.128C10.3787 51.128 10.3253 51.128 10.272 51.128C10.2187 51.128 10.1867 51.128 10.176 51.128C8.43733 51.1067 7.088 50.7227 6.128 49.976C5.168 49.2187 4.688 48.1413 4.688 46.744C4.688 45.3573 5.168 44.296 6.128 43.56C7.09867 42.8133 8.464 42.4347 10.224 42.424C10.2453 42.424 10.2773 42.424 10.32 42.424C10.3733 42.424 10.4213 42.424 10.464 42.424C10.5173 42.424 10.5493 42.424 10.56 42.424C12.3413 42.424 13.7227 42.7973 14.704 43.544C15.696 44.2907 16.192 45.3573 16.192 46.744C16.192 48.152 15.696 49.2347 14.704 49.992C13.712 50.7493 12.3253 51.128 10.544 51.128ZM10.512 49.784C11.44 49.784 12.208 49.6667 12.816 49.432C13.4347 49.1973 13.8987 48.856 14.208 48.408C14.5173 47.96 14.672 47.4053 14.672 46.744C14.672 46.0933 14.5173 45.5493 14.208 45.112C13.8987 44.6747 13.4347 44.344 12.816 44.12C12.208 43.896 11.44 43.784 10.512 43.784C10.4907 43.784 10.448 43.784 10.384 43.784C10.32 43.784 10.2827 43.784 10.272 43.784C9.36533 43.784 8.608 43.9013 8 44.136C7.40267 44.36 6.95467 44.6907 6.656 45.128C6.35733 45.5653 6.208 46.104 6.208 46.744C6.208 47.3947 6.35733 47.944 6.656 48.392C6.96533 48.84 7.41867 49.1813 8.016 49.416C8.624 49.6507 9.376 49.7733 10.272 49.784C10.2933 49.784 10.3307 49.784 10.384 49.784C10.448 49.784 10.4907 49.784 10.512 49.784ZM9.68 54.104V39.128H11.184V54.104H9.68ZM18.563 51V42.52H20.099V51H18.563ZM19.331 40.888C19.0323 40.888 18.7817 40.792 18.579 40.6C18.387 40.408 18.291 40.1733 18.291 39.896C18.291 39.608 18.387 39.368 18.579 39.176C18.7817 38.984 19.0323 38.888 19.331 38.888C19.6297 38.888 19.875 38.984 20.067 39.176C20.2697 39.3573 20.371 39.5867 20.371 39.864C20.371 40.152 20.275 40.3973 20.083 40.6C19.891 40.792 19.6403 40.888 19.331 40.888ZM23.2942 51V42.52H24.8302V46.12H29.6623V42.52H31.1982V51H29.6623V47.448H24.8302V51H23.2942ZM39.5849 51V49.208L39.5049 48.872V45.816C39.5049 45.1653 39.3129 44.664 38.9289 44.312C38.5555 43.9493 37.9902 43.768 37.2329 43.768C36.7315 43.768 36.2409 43.8533 35.7609 44.024C35.2809 44.184 34.8755 44.4027 34.5449 44.68L33.9049 43.528C34.3422 43.176 34.8649 42.9093 35.4729 42.728C36.0915 42.536 36.7369 42.44 37.4089 42.44C38.5715 42.44 39.4675 42.7227 40.0969 43.288C40.7262 43.8533 41.0409 44.7173 41.0409 45.88V51H39.5849ZM36.8009 51.096C36.1715 51.096 35.6169 50.9893 35.1369 50.776C34.6675 50.5627 34.3049 50.2693 34.0489 49.896C33.7929 49.512 33.6649 49.08 33.6649 48.6C33.6649 48.1413 33.7715 47.7253 33.9849 47.352C34.2089 46.9787 34.5662 46.68 35.0569 46.456C35.5582 46.232 36.2302 46.12 37.0729 46.12H39.7609V47.224H37.1369C36.3689 47.224 35.8515 47.352 35.5849 47.608C35.3182 47.864 35.1849 48.1733 35.1849 48.536C35.1849 48.952 35.3502 49.288 35.6809 49.544C36.0115 49.7893 36.4702 49.912 37.0569 49.912C37.6329 49.912 38.1342 49.784 38.5609 49.528C38.9982 49.272 39.3129 48.8987 39.5049 48.408L39.8089 49.464C39.6062 49.9653 39.2489 50.3653 38.7369 50.664C38.2249 50.952 37.5795 51.096 36.8009 51.096ZM44.0067 51V42.52H45.5427V46.12H50.3747V42.52H51.9107V51H50.3747V47.448H45.5427V51H44.0067ZM58.7934 51.096C57.9294 51.096 57.156 50.9093 56.4734 50.536C55.8014 50.1627 55.2734 49.6507 54.8894 49C54.5054 48.3493 54.3134 47.6027 54.3134 46.76C54.3134 45.9173 54.5054 45.1707 54.8894 44.52C55.2734 43.8693 55.8014 43.3627 56.4734 43C57.156 42.6267 57.9294 42.44 58.7934 42.44C59.5614 42.44 60.244 42.5947 60.8414 42.904C61.4494 43.2027 61.9187 43.6507 62.2494 44.248L61.0814 45C60.804 44.584 60.4627 44.28 60.0574 44.088C59.6627 43.8853 59.236 43.784 58.7774 43.784C58.2227 43.784 57.7267 43.9067 57.2894 44.152C56.852 44.3973 56.5054 44.744 56.2494 45.192C55.9934 45.6293 55.8654 46.152 55.8654 46.76C55.8654 47.368 55.9934 47.896 56.2494 48.344C56.5054 48.792 56.852 49.1387 57.2894 49.384C57.7267 49.6293 58.2227 49.752 58.7774 49.752C59.236 49.752 59.6627 49.656 60.0574 49.464C60.4627 49.2613 60.804 48.952 61.0814 48.536L62.2494 49.272C61.9187 49.8587 61.4494 50.312 60.8414 50.632C60.244 50.9413 59.5614 51.096 58.7934 51.096ZM67.945 51.096C67.0917 51.096 66.3343 50.9093 65.673 50.536C65.0117 50.1627 64.489 49.6507 64.105 49C63.721 48.3387 63.529 47.592 63.529 46.76C63.529 45.9173 63.721 45.1707 64.105 44.52C64.489 43.8693 65.0117 43.3627 65.673 43C66.3343 42.6267 67.0917 42.44 67.945 42.44C68.7877 42.44 69.5397 42.6267 70.201 43C70.873 43.3627 71.3957 43.8693 71.769 44.52C72.153 45.16 72.345 45.9067 72.345 46.76C72.345 47.6027 72.153 48.3493 71.769 49C71.3957 49.6507 70.873 50.1627 70.201 50.536C69.5397 50.9093 68.7877 51.096 67.945 51.096ZM67.945 49.752C68.489 49.752 68.9743 49.6293 69.401 49.384C69.8383 49.1387 70.1797 48.792 70.425 48.344C70.6703 47.8853 70.793 47.3573 70.793 46.76C70.793 46.152 70.6703 45.6293 70.425 45.192C70.1797 44.744 69.8383 44.3973 69.401 44.152C68.9743 43.9067 68.489 43.784 67.945 43.784C67.401 43.784 66.9157 43.9067 66.489 44.152C66.0623 44.3973 65.721 44.744 65.465 45.192C65.209 45.6293 65.081 46.152 65.081 46.76C65.081 47.3573 65.209 47.8853 65.465 48.344C65.721 48.792 66.0623 49.1387 66.489 49.384C66.9157 49.6293 67.401 49.752 67.945 49.752ZM74.763 51V42.52H78.699C79.691 42.52 80.4697 42.712 81.035 43.096C81.611 43.4693 81.899 44.0027 81.899 44.696C81.899 45.3893 81.627 45.928 81.083 46.312C80.5497 46.6853 79.8403 46.872 78.955 46.872L79.195 46.456C80.2083 46.456 80.9603 46.6427 81.451 47.016C81.9417 47.3893 82.187 47.9387 82.187 48.664C82.187 49.4 81.9097 49.976 81.355 50.392C80.811 50.7973 79.9737 51 78.843 51H74.763ZM76.267 49.816H78.731C79.371 49.816 79.851 49.72 80.171 49.528C80.491 49.3253 80.651 49.0053 80.651 48.568C80.651 48.12 80.5017 47.7947 80.203 47.592C79.915 47.3787 79.4563 47.272 78.827 47.272H76.267V49.816ZM76.267 46.168H78.571C79.1577 46.168 79.6003 46.0613 79.899 45.848C80.2083 45.624 80.363 45.3147 80.363 44.92C80.363 44.5147 80.2083 44.2107 79.899 44.008C79.6003 43.8053 79.1577 43.704 78.571 43.704H76.267V46.168ZM89.9911 51V49.208L89.9111 48.872V45.816C89.9111 45.1653 89.7191 44.664 89.3351 44.312C88.9618 43.9493 88.3965 43.768 87.6391 43.768C87.1378 43.768 86.6471 43.8533 86.1671 44.024C85.6871 44.184 85.2818 44.4027 84.9511 44.68L84.3111 43.528C84.7485 43.176 85.2711 42.9093 85.8791 42.728C86.4978 42.536 87.1431 42.44 87.8151 42.44C88.9778 42.44 89.8738 42.7227 90.5031 43.288C91.1325 43.8533 91.4471 44.7173 91.4471 45.88V51H89.9911ZM87.2071 51.096C86.5778 51.096 86.0231 50.9893 85.5431 50.776C85.0738 50.5627 84.7111 50.2693 84.4551 49.896C84.1991 49.512 84.0711 49.08 84.0711 48.6C84.0711 48.1413 84.1778 47.7253 84.3911 47.352C84.6151 46.9787 84.9725 46.68 85.4631 46.456C85.9645 46.232 86.6365 46.12 87.4791 46.12H90.1671V47.224H87.5431C86.7751 47.224 86.2578 47.352 85.9911 47.608C85.7245 47.864 85.5911 48.1733 85.5911 48.536C85.5911 48.952 85.7565 49.288 86.0871 49.544C86.4178 49.7893 86.8765 49.912 87.4631 49.912C88.0391 49.912 88.5405 49.784 88.9671 49.528C89.4045 49.272 89.7191 48.8987 89.9111 48.408L90.2151 49.464C90.0125 49.9653 89.6551 50.3653 89.1431 50.664C88.6311 50.952 87.9858 51.096 87.2071 51.096ZM105.054 51L101.774 46.872L103.038 46.104L106.862 51H105.054ZM98.9099 51V42.52H100.446V51H98.9099ZM99.9819 47.416V46.104H102.782V47.416H99.9819ZM103.166 46.936L101.742 46.744L104.99 42.52H106.638L103.166 46.936ZM112.023 51.096C111.17 51.096 110.412 50.9093 109.751 50.536C109.09 50.1627 108.567 49.6507 108.183 49C107.799 48.3387 107.607 47.592 107.607 46.76C107.607 45.9173 107.799 45.1707 108.183 44.52C108.567 43.8693 109.09 43.3627 109.751 43C110.412 42.6267 111.17 42.44 112.023 42.44C112.866 42.44 113.618 42.6267 114.279 43C114.951 43.3627 115.474 43.8693 115.847 44.52C116.231 45.16 116.423 45.9067 116.423 46.76C116.423 47.6027 116.231 48.3493 115.847 49C115.474 49.6507 114.951 50.1627 114.279 50.536C113.618 50.9093 112.866 51.096 112.023 51.096ZM112.023 49.752C112.567 49.752 113.052 49.6293 113.479 49.384C113.916 49.1387 114.258 48.792 114.503 48.344C114.748 47.8853 114.871 47.3573 114.871 46.76C114.871 46.152 114.748 45.6293 114.503 45.192C114.258 44.744 113.916 44.3973 113.479 44.152C113.052 43.9067 112.567 43.784 112.023 43.784C111.479 43.784 110.994 43.9067 110.567 44.152C110.14 44.3973 109.799 44.744 109.543 45.192C109.287 45.6293 109.159 46.152 109.159 46.76C109.159 47.3573 109.287 47.8853 109.543 48.344C109.799 48.792 110.14 49.1387 110.567 49.384C110.994 49.6293 111.479 49.752 112.023 49.752ZM118.841 51V42.52H120.425L124.073 48.792H123.433L127.177 42.52H128.617V51H127.225V44.248L127.481 44.392L124.057 50.04H123.385L119.945 44.28L120.249 44.216V51H118.841ZM131.807 51V42.52H139.663V51H138.127V43.48L138.495 43.864H132.975L133.343 43.48V51H131.807ZM148.035 51V49.208L147.955 48.872V45.816C147.955 45.1653 147.763 44.664 147.379 44.312C147.006 43.9493 146.44 43.768 145.683 43.768C145.182 43.768 144.691 43.8533 144.211 44.024C143.731 44.184 143.326 44.4027 142.995 44.68L142.355 43.528C142.792 43.176 143.315 42.9093 143.923 42.728C144.542 42.536 145.187 42.44 145.859 42.44C147.022 42.44 147.918 42.7227 148.547 43.288C149.176 43.8533 149.491 44.7173 149.491 45.88V51H148.035ZM145.251 51.096C144.622 51.096 144.067 50.9893 143.587 50.776C143.118 50.5627 142.755 50.2693 142.499 49.896C142.243 49.512 142.115 49.08 142.115 48.6C142.115 48.1413 142.222 47.7253 142.435 47.352C142.659 46.9787 143.016 46.68 143.507 46.456C144.008 46.232 144.68 46.12 145.523 46.12H148.211V47.224H145.587C144.819 47.224 144.302 47.352 144.035 47.608C143.768 47.864 143.635 48.1733 143.635 48.536C143.635 48.952 143.8 49.288 144.131 49.544C144.462 49.7893 144.92 49.912 145.507 49.912C146.083 49.912 146.584 49.784 147.011 49.528C147.448 49.272 147.763 48.8987 147.955 48.408L148.259 49.464C148.056 49.9653 147.699 50.3653 147.187 50.664C146.675 50.952 146.03 51.096 145.251 51.096ZM152.457 51V42.52H153.993V46.12H158.825V42.52H160.361V51H158.825V47.448H153.993V51H152.457ZM163.547 51V42.52H165.083V51H163.547ZM164.315 40.888C164.017 40.888 163.766 40.792 163.563 40.6C163.371 40.408 163.275 40.1733 163.275 39.896C163.275 39.608 163.371 39.368 163.563 39.176C163.766 38.984 164.017 38.888 164.315 38.888C164.614 38.888 164.859 38.984 165.051 39.176C165.254 39.3573 165.355 39.5867 165.355 39.864C165.355 40.152 165.259 40.3973 165.067 40.6C164.875 40.792 164.625 40.888 164.315 40.888ZM173.703 51V48.024L173.943 48.312H171.239C170.108 48.312 169.223 48.072 168.583 47.592C167.953 47.112 167.639 46.4133 167.639 45.496C167.639 44.5147 167.975 43.7733 168.647 43.272C169.329 42.7707 170.236 42.52 171.367 42.52H175.079V51H173.703ZM167.559 51L169.863 47.752H171.447L169.207 51H167.559ZM173.703 47.544V43.432L173.943 43.864H171.415C170.711 43.864 170.167 43.9973 169.783 44.264C169.399 44.52 169.207 44.9467 169.207 45.544C169.207 46.6533 169.921 47.208 171.351 47.208H173.943L173.703 47.544Z" fill="white"/>
</svg>
